<?xml version="1.0" standalone="no"?>
<!DOCTYPE svg PUBLIC "-//W3C//DTD SVG 20010904//EN"
 "http://www.w3.org/TR/2001/REC-SVG-20010904/DTD/svg10.dtd">
<svg version="1.0" xmlns="http://www.w3.org/2000/svg"
 width="470.000000pt" height="470.000000pt" viewBox="0 0 470.000000 470.000000"
 preserveAspectRatio="xMidYMid meet">
<metadata>
Created by potrace 1.14, written by Peter Selinger 2001-2017
</metadata>
<g transform="translate(0.000000,470.000000) scale(0.100000,-0.100000)"
fill="#000000" stroke="none">
<path d="M2224 4093 c-60 -71 -121 -141 -135 -158 -203 -230 -194 -218 -300
-434 -55 -113 -102 -208 -105 -210 -2 -3 -28 19 -58 48 l-53 52 -22 -58 c-38
-98 -313 -825 -328 -867 -29 -82 -12 -64 -223 -235 -91 -74 -171 -139 -178
-146 -12 -11 -36 -118 -124 -555 l-41 -206 27 -46 26 -45 178 -53 c336 -100
407 -121 507 -151 l100 -29 901 0 c859 0 904 1 960 19 33 11 147 51 254 91
107 40 241 88 297 107 99 35 104 37 129 82 l26 46 -31 150 c-25 119 -41 170
-77 245 -26 52 -87 181 -136 285 l-90 190 -78 413 c-43 228 -81 416 -83 418
-3 3 -39 -2 -81 -10 -100 -21 -113 -20 -119 7 -3 12 -28 96 -57 187 -28 91
-61 197 -73 235 -11 39 -22 72 -24 74 -2 3 -99 14 -215 25 l-211 21 -80 115
c-153 220 -279 405 -315 462 -21 32 -42 57 -48 58 -6 0 -60 -57 -120 -127z
m324 -278 l199 -290 206 -20 c113 -11 208 -23 210 -25 3 -3 28 -81 57 -175 28
-93 65 -212 82 -262 33 -106 28 -103 144 -81 35 6 66 9 68 7 6 -5 26 -101 60
-289 14 -74 41 -216 60 -315 38 -198 17 -144 239 -606 56 -116 70 -157 93
-271 32 -155 29 -172 -42 -196 -21 -8 -68 -24 -104 -38 -36 -13 -172 -62 -303
-109 l-238 -85 -897 2 -897 3 -190 59 c-104 32 -235 72 -290 88 -224 67 -251
77 -266 104 -12 24 -7 58 50 343 36 174 68 330 73 348 6 24 36 54 116 120 59
48 116 95 127 105 11 9 47 39 81 66 l60 50 74 194 c40 106 92 243 115 303 24
61 69 180 100 265 32 85 60 157 62 159 2 3 25 -17 52 -43 39 -38 50 -44 59
-33 6 7 63 119 126 248 62 129 124 245 137 259 13 14 64 72 114 130 49 58 92
107 95 110 3 3 39 45 79 93 41 48 78 84 82 80 5 -5 98 -139 207 -298z"/>
<path d="M2180 3828 c-170 -201 -179 -215 -182 -271 -1 -40 -1 -41 -5 -7 -4
32 -16 11 -129 -218 -68 -140 -124 -265 -124 -278 0 -13 -5 -23 -11 -21 -5 1
-38 -48 -72 -110 -34 -61 -66 -115 -71 -120 -11 -9 -14 -17 63 124 33 61 61
118 61 125 -1 20 -70 92 -79 82 -5 -5 -59 -142 -119 -304 -61 -162 -118 -312
-127 -334 -9 -21 -18 -54 -21 -73 -6 -52 -59 -143 -82 -143 -6 0 -12 -3 -14
-7 -3 -7 -84 -75 -272 -230 l-59 -48 -58 -285 c-32 -157 -58 -296 -59 -309 0
-53 -8 -50 465 -193 l210 -63 280 -2 c213 -2 298 1 355 12 90 18 96 18 50 0
-30 -12 44 -14 540 -11 316 1 588 5 604 9 15 4 117 39 225 78 108 39 229 82
269 96 94 33 99 41 76 153 -17 82 -20 89 -45 94 -16 3 -86 -10 -164 -30 -76
-19 -139 -33 -141 -31 -4 3 151 45 269 73 18 4 26 11 23 20 -3 7 0 14 5 16 6
2 -26 78 -69 168 -44 91 -100 209 -125 263 -25 53 -51 97 -57 97 -7 0 -10 6
-7 13 8 21 -109 694 -124 711 -12 13 -152 -11 -165 -28 -13 -19 -24 -11 -24
18 0 30 -151 519 -165 534 -12 14 -370 56 -387 46 -5 -3 -14 -1 -21 4 -7 5
-74 24 -150 42 -75 18 -135 35 -133 37 2 3 61 -9 131 -27 70 -17 131 -30 136
-28 6 2 -9 30 -32 63 -23 33 -100 146 -171 252 -71 106 -135 196 -142 202 -8
7 -51 -37 -156 -161z m-73 -224 c-3 -3 -12 -4 -19 -1 -8 3 -5 6 6 6 11 1 17
-2 13 -5z m40 -10 c-3 -3 -12 -4 -19 -1 -8 3 -5 6 6 6 11 1 17 -2 13 -5z m40
-10 c-3 -3 -12 -4 -19 -1 -8 3 -5 6 6 6 11 1 17 -2 13 -5z m80 -20 c-3 -3 -12
-4 -19 -1 -8 3 -5 6 6 6 11 1 17 -2 13 -5z m73 -14 c20 -6 21 -8 5 -8 -11 0
-29 3 -40 8 -25 11 1 11 35 0z m57 -16 c-3 -3 -12 -4 -19 -1 -8 3 -5 6 6 6 11
1 17 -2 13 -5z m-412 -99 c-4 -36 -10 -64 -12 -61 -3 2 -2 34 2 71 4 36 10 64
12 61 3 -2 2 -34 -2 -71z m-40 -300 c-16 -118 -31 -213 -33 -210 -2 2 8 101
24 219 15 119 30 213 32 211 3 -3 -8 -101 -23 -220z m-136 -250 c0 -5 -15 19
-34 55 -19 36 -34 70 -34 75 0 6 15 -19 34 -55 19 -36 34 -69 34 -75z m807 54
c1 -13 7 -84 14 -157 7 -73 10 -135 8 -138 -3 -2 -11 58 -17 133 -7 76 -15
141 -18 145 -8 14 -28 9 -171 -37 -77 -25 -144 -45 -148 -44 -12 0 165 62 237
83 31 9 60 23 63 32 9 23 31 11 32 -17z m-714 -123 c-7 -53 -6 -69 5 -78 8 -7
13 -22 10 -35 -3 -16 8 -43 32 -81 50 -78 53 -82 48 -82 -3 0 -24 29 -47 65
-23 36 -54 71 -69 78 -33 15 -38 40 -13 64 14 13 22 39 28 93 4 41 9 68 11 58
2 -9 0 -46 -5 -82z m-43 -46 c1 -8 -10 9 -24 38 -14 30 -25 57 -25 60 1 13 49
-83 49 -98z m381 55 c-46 -18 -64 -17 -25 0 17 8 37 14 45 14 8 0 -1 -7 -20
-14z m-75 -25 c-11 -5 -27 -9 -35 -9 -9 0 -8 4 5 9 11 5 27 9 35 9 9 0 8 -4
-5 -9z m-55 -15 c0 -6 -73 -25 -78 -20 -2 2 11 8 29 14 41 11 49 12 49 6z
m-568 -67 c-16 -29 -57 -104 -92 -165 -34 -62 -66 -115 -70 -118 -5 -3 17 41
49 97 32 57 74 133 95 171 20 37 39 67 42 67 3 0 -8 -24 -24 -52z m463 32
c-27 -12 -43 -12 -25 0 8 5 22 9 30 9 10 0 8 -3 -5 -9z m21 -118 c-6 -5 -56
21 -56 29 0 5 13 0 29 -9 16 -9 28 -18 27 -20z m642 -242 c-1 -53 -16 58 -22
160 l-5 85 14 -105 c7 -58 13 -121 13 -140z m-588 215 c17 -9 30 -18 30 -21 0
-4 -59 23 -69 32 -10 9 13 3 39 -11z m101 -62 c13 -17 13 -17 -6 -3 -11 8 -22
16 -24 17 -2 2 0 3 6 3 6 0 17 -8 24 -17z m-139 -67 c7 -13 7 -16 -1 -12 -6 4
-18 22 -27 39 -14 30 -14 31 1 12 9 -11 21 -28 27 -39z m255 -3 c-5 -4 -97 47
-97 53 0 3 23 -7 50 -22 28 -15 49 -29 47 -31z m173 -96 c25 -15 41 -27 36
-27 -11 0 -185 100 -192 111 -4 8 33 -12 156 -84z m-373 11 c49 -78 55 -88 50
-88 -3 0 -23 29 -85 128 -8 12 -12 22 -10 22 3 0 23 -28 45 -62z m-521 -33 c3
-8 -1 -21 -9 -29 -13 -14 -17 -14 -27 -1 -7 8 -10 22 -6 30 7 19 35 19 42 0z
m1044 -72 c0 -2 -22 8 -50 24 -27 15 -50 31 -50 35 0 4 23 -7 50 -24 28 -17
50 -33 50 -35z m76 -18 c12 -22 62 -57 192 -134 241 -142 292 -173 292 -178 0
-5 -33 12 -117 64 -137 82 -363 213 -368 213 -3 0 -6 -17 -6 -37 -2 -34 -2
-34 -6 -8 -2 17 -9 41 -16 54 -8 16 -8 25 -2 28 6 2 10 22 9 46 -2 25 0 30 2
12 3 -16 12 -43 20 -60z m-1186 32 c0 -1 -62 -63 -137 -137 l-138 -135 130
136 c112 118 145 148 145 136z m20 -127 c-11 -63 -20 -118 -20 -123 0 -6 -2
-8 -6 -5 -3 3 5 63 17 134 13 70 24 123 26 117 2 -5 -5 -61 -17 -123z m670 73
c0 -9 23 -51 50 -94 28 -43 50 -82 50 -86 0 -4 -25 30 -55 76 -30 47 -61 89
-70 93 -18 10 -11 28 11 28 8 0 14 -7 14 -17z m534 -483 l5 -85 -10 75 c-20
161 -39 348 -38 376 2 39 36 -258 43 -366z m-385 234 c30 -50 18 -42 -19 13
-18 26 -25 41 -17 34 9 -7 25 -28 36 -47z m-852 -1 c-3 -10 -5 -4 -5 12 0 17
2 24 5 18 2 -7 2 -21 0 -30z m-274 3 c-5 -22 0 -26 38 -36 24 -7 71 -21 104
-31 33 -10 74 -19 90 -19 l30 0 -3 -210 c-2 -115 0 -210 3 -210 4 0 21 10 38
21 29 20 28 18 -6 -15 -21 -20 -41 -36 -45 -36 -4 0 -6 94 -4 208 3 164 1 211
-10 219 -25 20 -242 77 -246 64 -6 -19 -49 -13 -55 9 -6 25 12 47 43 53 14 2
26 5 26 6 1 0 -1 -10 -3 -23z m264 -63 c-3 -10 -5 -4 -5 12 0 17 2 24 5 18 2
-7 2 -21 0 -30z m621 5 c7 -7 12 -20 12 -30 0 -17 71 -89 133 -135 17 -13 36
-31 41 -41 6 -10 -3 -6 -20 9 -16 15 -57 52 -90 82 -76 68 -114 73 -181 26
-24 -17 -43 -28 -43 -25 0 3 20 19 45 37 30 22 45 40 45 55 0 31 35 45 58 22z
m302 -40 c18 -29 26 -47 19 -41 -16 13 -63 93 -55 93 2 0 19 -24 36 -52z m820
26 c0 -2 -9 0 -20 6 -11 6 -20 13 -20 16 0 2 9 0 20 -6 11 -6 20 -13 20 -16z
m70 -29 c8 -7 39 -25 68 -39 28 -14 52 -29 52 -31 0 -3 -28 9 -61 26 -43 21
-67 28 -79 22 -10 -4 -52 -48 -94 -96 -42 -48 -76 -85 -76 -81 0 4 30 41 67
83 106 121 99 109 77 126 -18 13 -18 14 6 8 14 -3 32 -11 40 -18z m-835 -81
c9 -15 12 -23 6 -20 -11 7 -35 46 -28 46 3 0 12 -12 22 -26z m-515 2 c0 -2
-16 -16 -35 -30 -19 -15 -32 -21 -30 -14 3 7 18 20 33 30 32 19 32 19 32 14z
m1520 -11 c17 -9 30 -18 30 -21 0 -4 -59 23 -69 32 -10 9 13 3 39 -11z m-925
-117 c9 -16 15 -28 13 -28 -7 0 -78 108 -78 117 0 7 21 -22 65 -89z m1010 72
c39 -26 25 -26 -17 0 -18 11 -28 20 -23 20 6 0 24 -9 40 -20z m-1740 -45 c-33
-28 -65 -48 -65 -41 0 5 82 66 89 66 4 0 -7 -11 -24 -25z m1856 -11 c38 -20
68 -39 65 -41 -3 -4 -130 60 -145 73 -16 14 22 -2 80 -32z m-1336 -4 c10 -11
16 -20 13 -20 -3 0 -13 9 -23 20 -10 11 -16 20 -13 20 3 0 13 -9 23 -20z m765
-18 c0 -4 -12 -21 -27 -38 -16 -17 -50 -57 -78 -89 -27 -33 -80 -93 -117 -134
-38 -42 -68 -79 -68 -83 0 -12 18 -10 115 16 541 144 674 178 580 146 -30 -10
-399 -109 -589 -158 -55 -14 -108 -34 -118 -44 -14 -14 -23 -16 -36 -9 -13 7
-53 1 -136 -20 -65 -17 -120 -28 -123 -26 -2 3 47 17 109 32 62 15 119 33 126
40 11 10 -5 29 -94 106 -59 52 -130 116 -158 143 -51 48 7 1 169 -141 39 -33
81 -64 94 -68 21 -6 23 -5 18 22 -10 49 -30 283 -25 288 3 3 10 -55 17 -127
15 -163 19 -188 35 -188 6 0 48 41 91 91 44 51 93 106 108 123 15 17 44 52 65
78 39 50 42 53 42 40z m-722 -27 c-3 -3 -9 2 -12 12 -6 14 -5 15 5 6 7 -7 10
-15 7 -18z m-643 5 c-3 -5 -20 -19 -38 -30 -32 -22 -32 -22 3 9 37 32 45 37
35 21z m2040 -18 c-3 -3 -11 0 -18 7 -9 10 -8 11 6 5 10 -3 15 -9 12 -12z
m-1360 -12 c10 -11 16 -20 13 -20 -3 0 -13 9 -23 20 -10 11 -16 20 -13 20 3 0
13 -9 23 -20z m186 -35 l10 -20 -16 20 c-9 11 -21 29 -26 40 l-10 20 16 -20
c9 -11 21 -29 26 -40z m-514 -197 c-1 -46 -3 -9 -3 82 0 91 2 128 3 83 2 -46
2 -120 0 -165z m1728 232 c3 -6 -1 -7 -9 -4 -18 7 -21 14 -7 14 6 0 13 -4 16
-10z m-2190 -50 c-3 -5 -20 -19 -38 -30 -32 -22 -32 -22 3 9 37 32 45 37 35
21z m1026 -65 l10 -20 -16 20 c-9 11 -21 29 -26 40 l-10 20 16 -20 c9 -11 21
-29 26 -40z m1159 32 c-41 -38 -173 -140 -166 -129 9 15 165 142 174 142 4 0
0 -6 -8 -13z m-1105 -113 c20 -31 35 -58 33 -60 -2 -1 -20 24 -41 56 -20 33
-35 60 -32 60 2 0 21 -25 40 -56z m920 -34 c-3 -5 -12 -10 -18 -10 -7 0 -6 4
3 10 19 12 23 12 15 0z m-1937 -42 c-6 -18 -28 -21 -28 -4 0 9 7 16 16 16 9 0
14 -5 12 -12z m1807 -58 c-6 -9 -127 -107 -165 -134 -34 -23 8 15 85 78 83 68
90 73 80 56z m-1130 -96 c-71 -19 -134 -33 -138 -31 -12 4 222 65 248 65 11 0
-38 -15 -110 -34z"/>
</g>
</svg>
