<svg xmlns="http://www.w3.org/2000/svg">
  <defs>
    <style>
      .icon {
        display: none;
      }

      .icon:target {
        display: inline;
      }
    </style>
  </defs>
  <svg xmlns="http://www.w3.org/2000/svg" viewBox="0 0 384 512">  
    <g class="icon" id="receive">
        <path d="M13.97 2.196C22.49-1.72 32.5-.3214 39.62 5.778L80 40.39L120.4 5.778C129.4-1.926 142.6-1.926 151.6 5.778L192 40.39L232.4 5.778C241.4-1.926 254.6-1.926 263.6 5.778L304 40.39L344.4 5.778C351.5-.3214 361.5-1.72 370 2.196C378.5 6.113 384 14.63 384 24V488C384 497.4 378.5 505.9 370 509.8C361.5 513.7 351.5 512.3 344.4 506.2L304 471.6L263.6 506.2C254.6 513.9 241.4 513.9 232.4 506.2L192 471.6L151.6 506.2C142.6 513.9 129.4 513.9 120.4 506.2L80 471.6L39.62 506.2C32.5 512.3 22.49 513.7 13.97 509.8C5.456 505.9 0 497.4 0 488V24C0 14.63 5.456 6.112 13.97 2.196V2.196zM96 144C87.16 144 80 151.2 80 160C80 168.8 87.16 176 96 176H288C296.8 176 304 168.8 304 160C304 151.2 296.8 144 288 144H96zM96 368H288C296.8 368 304 360.8 304 352C304 343.2 296.8 336 288 336H96C87.16 336 80 343.2 80 352C80 360.8 87.16 368 96 368zM96 240C87.16 240 80 247.2 80 256C80 264.8 87.16 272 96 272H288C296.8 272 304 264.8 304 256C304 247.2 296.8 240 288 240H96z"/>
    </g>
  </svg>
  <svg xmlns="http://www.w3.org/2000/svg" viewBox="0 0 640 512">
    <g class="icon" id="send">
        <path d="M535 7.03C544.4-2.343 559.6-2.343 568.1 7.029L632.1 71.02C637.5 75.52 640 81.63 640 87.99C640 94.36 637.5 100.5 632.1 104.1L568.1 168.1C559.6 178.3 544.4 178.3 535 168.1C525.7 159.6 525.7 144.4 535 135L558.1 111.1L384 111.1C370.7 111.1 360 101.2 360 87.99C360 74.74 370.7 63.99 384 63.99L558.1 63.1L535 40.97C525.7 31.6 525.7 16.4 535 7.03V7.03zM104.1 376.1L81.94 400L255.1 399.1C269.3 399.1 279.1 410.7 279.1 423.1C279.1 437.2 269.3 447.1 255.1 447.1L81.95 448L104.1 471C114.3 480.4 114.3 495.6 104.1 504.1C95.6 514.3 80.4 514.3 71.03 504.1L7.029 440.1C2.528 436.5-.0003 430.4 0 423.1C0 417.6 2.529 411.5 7.03 407L71.03 343C80.4 333.7 95.6 333.7 104.1 343C114.3 352.4 114.3 367.6 104.1 376.1H104.1zM95.1 64H337.9C334.1 71.18 332 79.34 332 87.1C332 116.7 355.3 139.1 384 139.1L481.1 139.1C484.4 157.5 494.9 172.5 509.4 181.9C511.1 184.3 513.1 186.6 515.2 188.8C535.5 209.1 568.5 209.1 588.8 188.8L608 169.5V384C608 419.3 579.3 448 544 448H302.1C305.9 440.8 307.1 432.7 307.1 423.1C307.1 395.3 284.7 371.1 255.1 371.1L158.9 372C155.5 354.5 145.1 339.5 130.6 330.1C128.9 327.7 126.9 325.4 124.8 323.2C104.5 302.9 71.54 302.9 51.23 323.2L31.1 342.5V128C31.1 92.65 60.65 64 95.1 64V64zM95.1 192C131.3 192 159.1 163.3 159.1 128H95.1V192zM544 384V320C508.7 320 480 348.7 480 384H544zM319.1 352C373 352 416 309 416 256C416 202.1 373 160 319.1 160C266.1 160 223.1 202.1 223.1 256C223.1 309 266.1 352 319.1 352z"/>
    </g>
  </svg>
  <svg xmlns="http://www.w3.org/2000/svg" xmlns:xlink="http://www.w3.org/1999/xlink" version="1.1" viewBox="-10 0 596 512">
    <g class="icon" id="scan">
        <path fill="currentColor"
        d="M56 47q-7 1 -8 8v80q-2 23 -24 24q-22 -1 -24 -24v-80q1 -23 16 -39q16 -15 40 -16h80q22 2 24 23q-2 23 -24 24h-80v0zM144 151v208q-2 23 -24 24q-22 -1 -24 -24v-208q0 -10 7 -17t17 -7t17 7t7 17v0v0zM176 143q1 -14 16 -16q15 2 16 16v224q-1 15 -16 16
        q-15 -1 -16 -16v-224v0zM448 143q1 -14 16 -16q15 2 16 16v224q-1 15 -16 16q-15 -1 -16 -16v-224v0zM240 151q0 -10 7 -17v0q7 -7 17 -7t17 7t7 17v208q-2 23 -24 24q-22 -1 -24 -24v-208v0zM416 151v208q-2 23 -24 24q-22 -1 -24 -24v-208q0 -10 7 -17t17 -7t17 7t7 17v0
        v0zM528 55q-1 -7 -8 -8h-80q-22 -1 -24 -24q2 -21 24 -23h80q24 1 40 16q15 16 16 39v80q-2 23 -24 24q-22 -1 -24 -24v-80v0zM136 463q10 0 17 7v0q7 7 7 17q-2 23 -24 24h-80q-24 0 -40 -16q-15 -16 -16 -40v-80q0 -10 7 -17t17 -7t17 7t7 17v80q1 8 8 8h80v0zM528 375
        q0 -10 7 -17v0q7 -7 17 -7t17 7t7 17v80q-1 24 -16 40q-16 16 -40 16h-80q-22 -1 -24 -24q0 -10 7 -17t17 -7h80q7 0 8 -8v-80v0z" />
    </g>
</svg>
</svg>